<?xml version="1.0" encoding="UTF-8" standalone="no"?>
<!-- Created with Inkscape (http://www.inkscape.org/) -->

<svg
   width="86.774643mm"
   height="86.774643mm"
   viewBox="0 0 86.774643 86.774643"
   version="1.1"
   id="svg1"
   xml:space="preserve"
   inkscape:version="1.4.2 (1:1.4.2+202505120737+ebf0e940d0)"
   sodipodi:docname="ETF_Icon.svg"
   xmlns:inkscape="http://www.inkscape.org/namespaces/inkscape"
   xmlns:sodipodi="http://sodipodi.sourceforge.net/DTD/sodipodi-0.dtd"
   xmlns="http://www.w3.org/2000/svg"
   xmlns:svg="http://www.w3.org/2000/svg"><sodipodi:namedview
     id="namedview1"
     pagecolor="#505050"
     bordercolor="#ffffff"
     borderopacity="1"
     inkscape:showpageshadow="0"
     inkscape:pageopacity="0"
     inkscape:pagecheckerboard="1"
     inkscape:deskcolor="#d1d1d1"
     inkscape:document-units="mm"
     inkscape:zoom="2.0132505"
     inkscape:cx="144.54237"
     inkscape:cy="102.07374"
     inkscape:window-width="1920"
     inkscape:window-height="1008"
     inkscape:window-x="0"
     inkscape:window-y="0"
     inkscape:window-maximized="1"
     inkscape:current-layer="layer1" /><defs
     id="defs1"><inkscape:path-effect
       effect="fillet_chamfer"
       id="path-effect11"
       is_visible="true"
       lpeversion="1"
       nodesatellites_param="F,0,0,1,0,0,0,1 @ F,0,0,1,0,0,0,1 @ F,0,0,1,0,0,0,1 @ F,0,0,1,0,0,0,1 | F,0,0,1,0,0,0,1 @ F,0,0,1,0,0,0,1 @ F,0,0,1,0,0,0,1 @ F,0,0,1,0,0,0,1 @ F,0,0,1,0,0,0,1 @ F,0,0,1,0,0,0,1 | F,0,0,1,0,0,0,1 @ F,0,0,1,0,0,0,1 @ F,0,0,1,0,0,0,1 @ F,0,0,1,0,0,0,1 | F,0,0,1,0,0,0,1 @ F,0,0,1,0,4.1767396,0,1 @ F,0,0,1,0,1.0912326,0,1 @ F,0,0,1,0,1.8999874,0,1 | F,0,0,1,0,0,0,1 @ F,0,0,1,0,0,0,1 @ F,0,0,1,0,0,0,1 @ F,0,0,1,0,0,0,1 | F,0,0,1,0,0,0,1 @ F,0,0,1,0,0,0,1 @ F,0,0,1,0,0,0,1 @ F,0,0,1,0,0,0,1 @ F,0,0,1,0,0,0,1 @ F,0,0,1,0,0,0,1"
       radius="0"
       unit="px"
       method="auto"
       mode="F"
       chamfer_steps="1"
       flexible="false"
       use_knot_distance="true"
       apply_no_radius="true"
       apply_with_radius="true"
       only_selected="false"
       hide_knots="false" /><inkscape:path-effect
       effect="fillet_chamfer"
       id="path-effect2"
       is_visible="true"
       lpeversion="1"
       nodesatellites_param="F,0,0,1,0,0,0,1 @ F,0,0,1,0,1.4721869,0,1 @ F,0,0,1,0,8.4240843,0,1 @ F,0,0,1,0,0,0,1"
       radius="0"
       unit="px"
       method="auto"
       mode="F"
       chamfer_steps="1"
       flexible="false"
       use_knot_distance="true"
       apply_no_radius="true"
       apply_with_radius="true"
       only_selected="false"
       hide_knots="false" /><inkscape:path-effect
       effect="fillet_chamfer"
       id="path-effect1"
       is_visible="true"
       lpeversion="1"
       nodesatellites_param="F,0,0,1,0,0,0,1 @ F,0,0,1,0,3.016078,0,1 @ F,0,0,1,0,4.7234176,0,1 @ F,0,0,1,0,5.3625214,0,1 @ F,0,0,1,0,4.2983825,0,1 @ F,0,0,1,0,0,0,1"
       radius="0"
       unit="px"
       method="auto"
       mode="F"
       chamfer_steps="1"
       flexible="false"
       use_knot_distance="true"
       apply_no_radius="true"
       apply_with_radius="true"
       only_selected="false"
       hide_knots="false" /></defs><g
     inkscape:label="Ebene 1"
     inkscape:groupmode="layer"
     id="layer1"
     transform="translate(19.071752,-17.257814)"><path
       id="path13"
       style="baseline-shift:baseline;display:inline;overflow:visible;opacity:1;vector-effect:none;fill:#006ec0;fill-opacity:1;stroke-linecap:square;enable-background:accumulate;stop-color:#000000;stop-opacity:1"
       d="m 24.987622,47.904569 c -0.854019,2.48e-4 -1.546197,0.692657 -1.546159,1.546676 -3.8e-5,0.854019 0.69214,1.546428 1.546159,1.546676 0.854221,3.8e-5 1.546714,-0.692455 1.546676,-1.546676 3.8e-5,-0.854221 -0.692455,-1.546714 -1.546676,-1.546676 z m -2.479435,8.071859 c -1.19752,5.7e-5 -2.168286,0.970824 -2.168343,2.168343 5.7e-5,1.19752 0.970823,2.168287 2.168343,2.168343 1.197519,-5.6e-5 2.168286,-0.970823 2.168343,-2.168343 -5.7e-5,-1.197519 -0.970824,-2.168286 -2.168343,-2.168343 z m 7.728727,5.89163 c -6.528254,-0.248676 -6.62383,2.947391 -13.260689,2.238623 h -5.17e-4 l -6.058545,9.563758 h 26.795781 z m -2.13682,4.237984 c 1.4334,-7.9e-5 2.5955,1.161791 2.595707,2.595191 7.9e-5,1.433602 -1.162105,2.595786 -2.595707,2.595707 -1.433602,7.9e-5 -2.595787,-1.162105 -2.595708,-2.595707 2.07e-4,-1.4334 1.162308,-2.59527 2.595708,-2.595191 z"
       sodipodi:nodetypes="ccccccccccccccccccccc" /><path
       id="path1"
       style="baseline-shift:baseline;display:inline;overflow:visible;opacity:1;vector-effect:none;fill:#343b46;fill-opacity:1;stroke-linecap:square;enable-background:accumulate;stop-color:#000000;stop-opacity:1"
       d="m 15.970085,35.287769 c -1.929391,0 -3.482475,1.553082 -3.482475,3.482474 0,1.929391 1.553084,3.482475 3.482475,3.482475 h 16.690454 c 1.929392,0 3.482475,-1.553084 3.482475,-3.482475 0,-1.929392 -1.553083,-3.482474 -3.482475,-3.482474 z m 0.06408,10.119279 v 0.06614 5.62498 c 0,0.582849 -0.166639,1.151961 -0.478523,1.644344 L 4.1609863,70.732633 c -2.742053,4.32899 0.4809875,10.187492 5.6053426,10.187492 H 38.864294 c 5.124355,0 8.347393,-5.858502 5.605343,-10.187492 L 33.074984,52.742517 C 32.7631,52.250134 32.59646,51.681022 32.59646,51.098173 v -5.62498 -0.06614 h -3.999756 v 0.06614 5.62498 c 0,1.340431 0.380341,2.652921 1.097608,3.785299 l 11.396203,17.990116 c 1.168206,1.844295 -0.04307,4.046781 -2.226221,4.046781 H 9.7663289 c -2.183147,0 -3.3949435,-2.202486 -2.2267374,-4.046781 L 18.936312,54.883472 c 0.717267,-1.132378 1.097607,-2.444868 1.097607,-3.785299 v -5.62498 -0.06614 z"
       sodipodi:nodetypes="sssssssccsccssccsccccsccssccsccc" /><path
       id="rect6"
       style="fill:#006ec0;fill-opacity:1;stroke:none;stroke-width:0.2;stroke-linecap:square;stroke-dasharray:none"
       d="m -6.4890096,52.742517 c -0.98188,-3.3e-5 -1.8956699,0.499035 -2.4210409,1.322917 l -1.1585855,1.816943 c -0.210213,0.329669 0.02828,0.760217 0.4211629,0.76016 H 5.50354 c 0.981879,3.3e-5 1.8956699,-0.499034 2.4210409,-1.322916 l 1.1580688,-1.816944 c 0.210214,-0.329669 -0.028277,-0.760217 -0.4211629,-0.76016 z m 46.4586626,0 c -0.392886,-5.7e-5 -0.631377,0.430491 -0.421163,0.76016 l 1.158069,1.816944 c 0.525371,0.823882 1.439162,1.322949 2.421041,1.322916 h 15.151013 c 0.392886,5.7e-5 0.631376,-0.430491 0.421163,-0.76016 L 57.541191,54.065434 C 57.01582,53.241552 56.10203,52.742484 55.12015,52.742517 Z m -50.921956,7.045048 c -0.98188,-3.3e-5 -1.895153,0.499035 -2.420524,1.322917 l -1.158586,1.816943 c -0.210213,0.329669 0.02828,0.760217 0.421163,0.76016 H 1.0407633 c 0.981879,3.3e-5 1.8951531,-0.499034 2.4205241,-1.322916 L 4.619873,60.547725 C 4.830087,60.218056 4.591596,59.787508 4.1987101,59.787565 Z m 55.384733,0 c -0.392886,-5.7e-5 -0.631377,0.430491 -0.421163,0.76016 l 1.158586,1.816944 c 0.525371,0.823882 1.438645,1.322949 2.420524,1.322916 H 62.74139 c 0.392886,5.7e-5 0.631376,-0.430491 0.421163,-0.76016 L 62.003967,61.110482 C 61.478596,60.2866 60.565323,59.787532 59.583443,59.787565 Z m -59.846476,7.045048 c -0.98188,-3.3e-5 -1.89567,0.499035 -2.421041,1.322917 l -1.158586,1.816943 c -0.210213,0.329669 0.02879,0.760217 0.42168,0.76016 h 15.1504964 c 0.981879,3.3e-5 1.8956699,-0.499034 2.4210409,-1.322916 l 1.15806882,-1.816944 c 0.210214,-0.329669 -0.0282769,-0.760217 -0.42116292,-0.76016 z m 64.308736,0 c -0.392886,-5.7e-5 -0.631377,0.430491 -0.421163,0.76016 l 1.158069,1.816944 c 0.525371,0.823882 1.439162,1.322949 2.421041,1.322916 h 15.150496 c 0.392886,5.7e-5 0.631893,-0.430491 0.42168,-0.76016 L 66.466227,68.15553 c -0.525371,-0.823882 -1.439161,-1.32295 -2.421041,-1.322917 z" /></g></svg>
